<svg width="41" height="19" viewBox="0 0 41 19" fill="none" xmlns="http://www.w3.org/2000/svg">
<path d="M40.5263 9.11842C40.5265 10.9218 39.9719 12.6848 38.9327 14.1843C37.8936 15.6839 36.4165 16.8526 34.6884 17.5428C32.9603 18.2329 31.0586 18.4135 29.2241 18.0616C27.3895 17.7097 25.7043 16.8413 24.3817 15.566L24.326 15.509L14.2018 4.48627C13.254 3.58312 12.0502 2.97044 10.7421 2.72534C9.4339 2.48024 8.07976 2.61367 6.85006 3.10883C5.62036 3.604 4.57005 4.43878 3.8313 5.50813C3.09255 6.57747 2.69838 7.83359 2.69838 9.11842C2.69838 10.4032 3.09255 11.6594 3.8313 12.7287C4.57005 13.7981 5.62036 14.6328 6.85006 15.128C8.07976 15.6232 9.4339 15.7566 10.7421 15.5115C12.0502 15.2664 13.254 14.6537 14.2018 13.7506L15.6407 12.1843C15.8783 11.9252 16.2129 11.7677 16.5709 11.7465C16.929 11.7253 17.2811 11.842 17.5498 12.0711C17.8186 12.3002 17.9819 12.6228 18.0039 12.968C18.0259 13.3132 17.9048 13.6527 17.6672 13.9118L16.1996 15.509L16.1439 15.566C14.8213 16.841 13.1362 17.7093 11.3017 18.0611C9.46725 18.4128 7.56579 18.2322 5.83779 17.542C4.10979 16.8519 2.63286 15.6833 1.59374 14.1839C0.554624 12.6845 0 10.9217 0 9.11842C0 7.31514 0.554624 5.55235 1.59374 4.05296C2.63286 2.55358 4.10979 1.38493 5.83779 0.694799C7.56579 0.00466961 9.46725 -0.175946 11.3017 0.175789C13.1362 0.527525 14.8213 1.39581 16.1439 2.67086L16.1996 2.72785L26.3238 13.7506C27.2716 14.6537 28.4754 15.2664 29.7836 15.5115C31.0917 15.7566 32.4459 15.6232 33.6756 15.128C34.9053 14.6328 35.9556 13.7981 36.6943 12.7287C37.4331 11.6594 37.8273 10.4032 37.8273 9.11842C37.8273 7.83359 37.4331 6.57747 36.6943 5.50813C35.9556 4.43878 34.9053 3.604 33.6756 3.10883C32.4459 2.61367 31.0917 2.48024 29.7836 2.72534C28.4754 2.97044 27.2716 3.58312 26.3238 4.48627L24.885 6.05257C24.6474 6.31167 24.3127 6.46914 23.9547 6.49036C23.5967 6.51159 23.2446 6.39481 22.9758 6.16573C22.7071 5.93665 22.5437 5.61403 22.5217 5.26884C22.4997 4.92366 22.6208 4.58418 22.8584 4.32508L24.326 2.72785L24.3817 2.67086C25.7043 1.39559 27.3895 0.5271 29.2241 0.175235C31.0586 -0.17663 32.9603 0.00393349 34.6884 0.694089C36.4165 1.38425 37.8936 2.55299 38.9327 4.05252C39.9719 5.55205 40.5265 7.315 40.5263 9.11842Z" fill="black"/>
</svg>
